<svg width="100" height="100" viewBox="0 0 100 100" fill="none" xmlns="http://www.w3.org/2000/svg">
<path d="M95 51.2222C95 20.7222 73.7 0 50 0C26.55 0 5 20.2778 5 51.5556C2 53.4444 0 57 0 61.1111V72.2222C0 78.3333 4.5 83.3333 10 83.3333H15V49.4444C15 27.9444 30.65 10.5556 50 10.5556C69.35 10.5556 85 27.9444 85 49.4444V88.8889H45V100H85C90.5 100 95 95 95 88.8889V82.1111C97.95 80.3889 100 77 100 73V60.2222C100 56.3333 97.95 52.9444 95 51.2222V51.2222Z" fill="white"/>
<path d="M35 61.1111C37.7614 61.1111 40 58.6238 40 55.5556C40 52.4873 37.7614 50 35 50C32.2386 50 30 52.4873 30 55.5556C30 58.6238 32.2386 61.1111 35 61.1111Z" fill="white"/>
<path d="M65 61.1111C67.7614 61.1111 70 58.6238 70 55.5556C70 52.4873 67.7614 50 65 50C62.2386 50 60 52.4873 60 55.5556C60 58.6238 62.2386 61.1111 65 61.1111Z" fill="white"/>
<path d="M79.9925 44.6144C78.8003 36.804 75.1596 29.7142 69.7148 24.5998C64.27 19.4855 57.3722 16.6764 50.2425 16.6699C35.0925 16.6699 18.7925 30.6144 20.0925 52.5033C26.2582 49.6999 31.7037 45.2448 35.9437 39.5354C40.1836 33.8259 43.0861 27.0395 44.3925 19.781C50.9425 34.3921 64.3925 44.4477 79.9925 44.6144Z" fill="white"/>
</svg>
