<svg width="100" height="100" viewBox="0 0 100 100" fill="none" xmlns="http://www.w3.org/2000/svg">
<path d="M5.05093 0L0 5.04748L8.89779 20.4244L14.6681 19.5787L49.89 54.7803L46.8856 57.6635C45.3468 59.2012 45.3468 61.5308 46.8856 63.0685L48.4474 64.6331C49.9861 66.1708 52.3404 66.1708 53.4945 64.6331L58.0645 69.1962C57.6799 71.5027 58.0645 74.2436 59.988 76.1658L80.7841 96.8285C85.0157 101.057 91.94 101.057 96.1716 96.8285C101.172 92.2154 101.126 85.3189 96.8948 81.0902L76.2179 60.3045C74.2945 58.3823 71.5516 57.6135 69.2435 58.3823L64.1926 53.8192C65.3467 52.2815 65.3467 49.9289 64.1926 48.7718L62.75 47.334C62.4003 46.9696 61.9805 46.6796 61.5157 46.4815C61.051 46.2834 60.5509 46.1813 60.0457 46.1813C59.5404 46.1813 59.0404 46.2834 58.5756 46.4815C58.1109 46.6796 57.691 46.9696 57.3413 47.334L54.8178 49.8558L19.5959 14.6581L20.4345 8.89171L5.04708 0L5.05093 0ZM80.0647 0.119171C72.4749 -0.511283 62.4115 4.51697 57.7029 8.88786C51.9096 14.6773 52.8559 22.2466 57.4606 29.5545L49.2898 37.7234L55.0601 44.2087C58.1376 41.5177 62.6769 41.5177 65.7544 44.2087L67.3201 45.7694L67.6817 46.1308L71.0477 42.7671C78.0028 46.8535 85.2426 47.4417 90.7629 41.9252C96.1485 36.9277 101.988 24.6031 99.2952 17.299L88.4778 28.4704C86.9391 30.0081 84.6079 30.0081 83.0691 28.4704L71.8863 17.299C71.5216 16.9496 71.2315 16.53 71.0332 16.0656C70.835 15.6012 70.7328 15.1015 70.7328 14.5965C70.7328 14.0916 70.835 13.5919 71.0332 13.1275C71.2315 12.6631 71.5216 12.2435 71.8863 11.8941L83.073 0.722716C82.1113 0.384423 81.1496 0.211433 80.0647 0.119171ZM37.7493 48.0529L23.8005 61.9882C22.3016 61.6554 20.7697 61.4942 19.2343 61.5077C8.4631 61.5077 0 69.965 0 80.7289C0 91.4927 8.4631 99.95 19.2343 99.95C30.0055 99.95 38.4686 91.4927 38.4686 80.7289C38.4686 78.7568 38.157 76.8616 37.6262 75.0817L45.8007 66.9127L44.6005 65.3519C41.523 62.2766 41.5461 57.6173 44.2389 54.5381L37.7454 48.0529H37.7493ZM67.5624 65.5941C68.0433 65.5941 68.4972 65.6864 68.8819 66.0747L91.6053 88.7787C92.3747 89.5475 92.3747 90.77 91.6053 91.5388C90.836 92.3077 89.605 92.3077 88.8356 91.5388L66.1199 68.8348C65.3505 68.066 65.3505 66.8435 66.1199 66.0747C66.5046 65.6902 67.0816 65.5941 67.5624 65.5941ZM21.881 70.7531L29.2131 78.084L26.5664 88.0521L16.5915 90.697L9.25555 83.366L11.9022 73.3979L21.881 70.7531V70.7531Z" fill="white"/>
</svg>
