<svg width="100" height="100" viewBox="0 0 100 100" fill="none" xmlns="http://www.w3.org/2000/svg">
<path d="M15.3828 42.8527H38.4597V49.9955H15.3828V42.8527ZM15.3828 14.2812H61.5367V21.4241H15.3828V14.2812ZM15.3828 28.567H61.5367V35.7098H15.3828V28.567ZM15.3828 78.567H38.4597V85.7098H15.3828V78.567ZM99.9982 78.567V71.4241H91.9174C91.4214 69.1885 90.4655 67.0627 89.102 65.1634L94.8328 59.842L89.3944 54.792L83.6636 60.1134C81.6182 58.8474 79.3289 57.9597 76.9213 57.4991V49.9955H69.229V57.4991C66.8214 57.9597 64.5321 58.8474 62.4867 60.1134L56.7559 54.792L51.3174 59.842L57.0482 65.1634C55.6848 67.0627 54.7288 69.1885 54.2328 71.4241H46.152V78.567H54.2328C54.7288 80.8026 55.6848 82.9284 57.0482 84.8277L51.3174 90.1491L56.7559 95.1991L62.4867 89.8777C64.5321 91.1437 66.8214 92.0314 69.229 92.492V99.9955H76.9213V92.492C79.3289 92.0314 81.6182 91.1437 83.6636 89.8777L89.3944 95.1991L94.8328 90.1491L89.102 84.8277C90.4655 82.9284 91.4214 80.8026 91.9174 78.567H99.9982ZM73.0751 85.7098C70.793 85.7098 68.5622 85.0814 66.6647 83.9041C64.7672 82.7268 63.2883 81.0535 62.415 79.0957C61.5417 77.1379 61.3132 74.9836 61.7584 72.9053C62.2036 70.8269 63.3025 68.9178 64.9162 67.4194C66.5299 65.921 68.5858 64.9005 70.8241 64.4871C73.0623 64.0737 75.3823 64.2859 77.4907 65.0968C79.5991 65.9078 81.4011 67.281 82.669 69.043C83.9369 70.805 84.6136 72.8764 84.6136 74.9955C84.6105 77.8363 83.3939 80.5598 81.2307 82.5685C79.0675 84.5773 76.1344 85.707 73.0751 85.7098Z" fill="white"/>
<path d="M38.4615 100H7.69231C5.65281 99.9981 3.69742 99.245 2.25527 97.9058C0.813128 96.5667 0.00203645 94.751 0 92.8571V7.14286C0.00203645 5.24903 0.813128 3.43332 2.25527 2.09418C3.69742 0.755047 5.65281 0.00189099 7.69231 0H69.2308C71.2703 0.00189099 73.2257 0.755047 74.6678 2.09418C76.11 3.43332 76.921 5.24903 76.9231 7.14286V42.8571H69.2308V7.14286H7.69231V92.8571H38.4615V100Z" fill="white"/>
</svg>
