<svg width="500" height="500" viewBox="0 0 500 500" fill="none" xmlns="http://www.w3.org/2000/svg">
<g clip-path="url(#clip0_2_2)">
<path d="M132.154 428.23L140.328 432.27C174.391 452.469 212.537 461.896 250.686 461.896C370.578 461.896 468.672 364.938 468.672 246.434C468.672 189.876 445.51 134.664 404.639 94.2645C363.766 53.8648 309.268 30.973 250.686 30.973C130.793 30.973 32.6973 127.93 34.0605 247.782C34.0605 288.18 46.3223 327.234 66.7578 360.898L72.207 368.979L50.4102 448.43L132.154 428.23Z" fill="#404040"/>
<path d="M427.799 72.7181C381.477 25.5869 317.443 0 252.047 0C113.082 0 1.36328 111.77 2.72461 247.78C2.72461 290.873 14.9863 332.62 35.4238 370.324L0 498.255L132.154 464.589C168.939 484.79 209.811 494.216 250.686 494.216C388.289 494.216 500.008 382.444 500.008 246.436C500.008 180.45 474.121 118.504 427.801 72.7181H427.799ZM252.047 452.471C215.262 452.471 178.477 443.046 147.141 424.193L138.967 420.153L59.9473 440.351L80.3828 363.595L74.9336 355.514C14.9863 259.903 43.5977 133.317 141.691 74.0637C239.785 14.8127 366.49 43.0927 426.438 140.05C486.383 237.008 457.772 362.245 359.68 421.498C328.342 441.697 290.195 452.469 252.047 452.469V452.471ZM371.939 302.996L356.953 296.263C356.953 296.263 335.156 286.836 321.531 280.102C320.168 280.102 318.807 278.755 317.443 278.755C313.355 278.755 310.631 280.102 307.906 281.45C307.906 281.45 306.545 282.795 287.471 304.342C286.107 307.035 283.383 308.382 280.658 308.382H279.295C277.934 308.382 275.209 307.035 273.846 305.689L267.033 302.996C252.047 296.263 238.424 288.181 227.523 277.409C224.799 274.716 220.711 272.023 217.986 269.33C208.449 259.903 198.912 249.129 192.102 237.01L190.738 234.317C189.377 232.969 189.377 231.624 188.014 228.93C188.014 226.237 188.014 223.544 189.377 222.197C189.377 222.197 194.826 215.463 198.912 211.425C201.639 208.73 203 204.691 205.725 201.998C208.449 197.958 209.813 192.571 208.449 188.531C207.088 181.797 190.738 145.438 186.652 137.359C183.926 133.319 181.203 131.973 177.115 130.625H162.129C159.402 130.625 156.68 131.973 153.953 131.973L152.59 133.319C149.865 134.666 147.141 137.359 144.416 138.705C141.691 141.4 140.328 144.091 137.604 146.786C128.066 158.905 122.617 173.718 122.617 188.531C122.617 199.303 125.342 210.077 129.43 219.504L130.793 223.544C143.055 249.129 159.402 272.023 181.203 292.222L186.652 297.608C190.738 301.649 194.826 304.342 197.551 308.38C226.162 332.622 258.859 350.127 295.645 359.554C299.732 360.9 305.182 360.9 309.27 362.247H322.893C329.705 362.247 337.879 359.554 343.33 356.861C347.416 354.168 350.141 354.168 352.865 351.475L355.592 348.78C358.316 346.087 361.041 344.741 363.766 342.048C366.49 339.355 369.215 336.662 370.578 333.967C373.303 328.581 374.664 321.847 376.027 315.116V305.689C376.027 305.689 374.664 304.342 371.939 302.996V302.996Z" fill="white"/>
</g>
<defs>
<clipPath id="clip0_2_2">
<rect width="500" height="500" fill="white"/>
</clipPath>
</defs>
</svg>
